<?xml version="1.0" encoding="UTF-8"?>
<svg xmlns="http://www.w3.org/2000/svg" xmlns:xlink="http://www.w3.org/1999/xlink" width="50px" height="50px" viewBox="0 0 50 50" version="1.1">
<g id="surface1">
<path style=" stroke:none;fill-rule:nonzero;fill:rgb(0%,0%,0%);fill-opacity:1;" d="M 22.332031 0.339844 C 20.007812 0.542969 18.191406 0.949219 16.132812 1.726562 C 14.824219 2.214844 12.601562 3.324219 12.523438 3.515625 C 12.5 3.601562 12.398438 3.667969 12.308594 3.667969 C 12.125 3.667969 10.523438 4.667969 10.167969 5.015625 C 10.023438 5.140625 9.648438 5.449219 9.324219 5.691406 C 5.109375 8.839844 1.464844 14.949219 0.582031 20.375 C 0.535156 20.675781 0.449219 21.132812 0.390625 21.410156 C 0.265625 22.015625 0.265625 27.984375 0.398438 28.617188 C 0.449219 28.875 0.535156 29.417969 0.582031 29.832031 C 1.632812 38.035156 9.542969 46.707031 18.023438 48.984375 C 22.023438 50.058594 27.808594 50.125 31.382812 49.148438 C 32.042969 48.976562 32.707031 48.792969 32.859375 48.757812 C 35.640625 48.089844 39.765625 45.535156 42.632812 42.699219 C 48.617188 36.765625 50.992188 28.765625 49.417969 19.839844 C 47.800781 10.640625 38.808594 1.808594 29.832031 0.589844 C 29.425781 0.535156 28.898438 0.457031 28.667969 0.410156 C 27.882812 0.265625 23.75 0.214844 22.332031 0.339844 Z M 28.148438 1.617188 C 28.207031 1.691406 28.667969 1.773438 29.167969 1.808594 C 30.140625 1.875 30.382812 1.949219 30.265625 2.140625 C 30.226562 2.214844 30.351562 2.265625 30.550781 2.265625 C 31.242188 2.25 32.351562 2.507812 32.257812 2.648438 C 32.207031 2.734375 32.433594 2.851562 32.757812 2.910156 C 33.125 2.976562 33.300781 3.082031 33.226562 3.199219 C 33.148438 3.324219 33.207031 3.351562 33.375 3.292969 C 33.683594 3.175781 34.832031 3.492188 34.832031 3.691406 C 34.832031 3.773438 35.023438 3.832031 35.257812 3.832031 C 35.484375 3.832031 35.714844 3.941406 35.773438 4.082031 C 35.824219 4.214844 35.925781 4.292969 36 4.25 C 36.25 4.101562 36.691406 4.375 36.839844 4.765625 C 36.933594 5.007812 37.199219 5.207031 37.535156 5.300781 C 37.832031 5.382812 38.066406 5.542969 38.042969 5.660156 C 38.007812 5.765625 38.050781 5.824219 38.125 5.773438 C 38.191406 5.734375 38.441406 5.800781 38.667969 5.925781 C 38.898438 6.050781 39.007812 6.160156 38.917969 6.167969 C 38.824219 6.175781 38.976562 6.292969 39.25 6.425781 C 40.117188 6.859375 40.515625 7.117188 40.550781 7.265625 C 40.589844 7.515625 42.839844 9.609375 42.949219 9.507812 C 43.007812 9.457031 43 9.507812 42.933594 9.617188 C 42.816406 9.832031 43.410156 10.542969 43.566406 10.375 C 43.625 10.324219 43.667969 10.359375 43.667969 10.457031 C 43.667969 10.742188 45.273438 13 45.390625 12.882812 C 45.449219 12.824219 45.5 12.867188 45.5 12.976562 C 45.5 13.074219 45.417969 13.167969 45.324219 13.167969 C 45.226562 13.167969 45.191406 13.242188 45.25 13.332031 C 45.308594 13.433594 45.425781 13.457031 45.507812 13.410156 C 45.601562 13.359375 45.667969 13.558594 45.667969 13.867188 C 45.675781 14.242188 45.714844 14.339844 45.816406 14.191406 C 46 13.898438 46.242188 14.234375 46.101562 14.589844 C 46.050781 14.734375 46.109375 14.832031 46.234375 14.832031 C 46.433594 14.832031 46.691406 15.617188 46.648438 16.066406 C 46.640625 16.148438 46.707031 16.257812 46.800781 16.316406 C 47.023438 16.457031 48.167969 19.257812 48.167969 19.667969 C 48.167969 19.851562 48.242188 20.316406 48.332031 20.707031 C 48.425781 21.101562 48.542969 21.773438 48.589844 22.207031 C 48.640625 22.640625 48.757812 23 48.851562 23 C 48.941406 23 48.964844 22.917969 48.898438 22.808594 C 48.832031 22.699219 48.851562 22.660156 48.941406 22.714844 C 49.390625 22.992188 49.308594 27.199219 48.851562 27.125 C 48.609375 27.082031 48.542969 27.324219 48.476562 28.375 C 48.449219 28.714844 48.390625 29 48.339844 29 C 48.292969 29 48.226562 29.359375 48.199219 29.792969 C 48.175781 30.214844 48.101562 30.617188 48.035156 30.667969 C 47.964844 30.707031 47.890625 30.933594 47.859375 31.167969 C 47.824219 31.390625 47.785156 31.683594 47.757812 31.808594 C 47.742188 31.925781 47.632812 32.082031 47.515625 32.160156 C 47.398438 32.226562 47.316406 32.332031 47.332031 32.398438 C 47.359375 32.457031 47.332031 32.660156 47.285156 32.839844 C 47.234375 33.023438 47.207031 33.191406 47.226562 33.214844 C 47.242188 33.242188 47.082031 33.476562 46.875 33.734375 C 46.675781 33.992188 46.542969 34.265625 46.582031 34.339844 C 46.773438 34.640625 46.351562 35.324219 46.050781 35.214844 C 45.808594 35.125 45.785156 35.148438 45.925781 35.339844 C 46.160156 35.660156 46.125 36.089844 45.875 36.042969 C 45.765625 36.023438 45.714844 36.109375 45.773438 36.25 C 45.824219 36.390625 45.75 36.542969 45.601562 36.601562 C 45.457031 36.660156 45.375 36.765625 45.425781 36.851562 C 45.566406 37.074219 44.617188 38.183594 44.367188 38.082031 C 44.25 38.042969 44.199219 38.082031 44.257812 38.175781 C 44.316406 38.265625 44.273438 38.457031 44.160156 38.589844 C 44.050781 38.726562 44.007812 38.832031 44.066406 38.832031 C 44.125 38.832031 44.058594 39.015625 43.910156 39.242188 C 43.757812 39.464844 43.542969 39.609375 43.425781 39.566406 C 43.300781 39.515625 43.167969 39.632812 43.117188 39.839844 C 43.058594 40.074219 42.949219 40.160156 42.800781 40.074219 C 42.625 39.976562 42.625 39.992188 42.792969 40.175781 C 43.023438 40.425781 43.066406 40.675781 42.875 40.648438 C 42.582031 40.601562 42.285156 40.675781 42.375 40.765625 C 42.492188 40.882812 41.699219 41.667969 41.464844 41.667969 C 41.382812 41.667969 41.367188 41.75 41.425781 41.839844 C 41.484375 41.941406 41.375 42.066406 41.167969 42.117188 C 40.925781 42.183594 40.867188 42.25 41.007812 42.339844 C 41.148438 42.425781 41.101562 42.5 40.859375 42.574219 C 40.660156 42.640625 40.5 42.765625 40.5 42.859375 C 40.5 42.941406 40.433594 42.976562 40.351562 42.925781 C 40.273438 42.875 40.109375 42.949219 40 43.082031 C 39.890625 43.214844 39.714844 43.285156 39.625 43.226562 C 39.515625 43.160156 39.5 43.199219 39.574219 43.324219 C 39.683594 43.5 39.117188 44.074219 38.824219 44.082031 C 38.773438 44.082031 38.410156 44.351562 38 44.667969 C 37.589844 44.992188 37.257812 45.214844 37.257812 45.183594 C 37.25 45.148438 37.074219 45.175781 36.859375 45.242188 C 36.648438 45.308594 36.515625 45.398438 36.566406 45.449219 C 36.75 45.632812 35.910156 46.125 35.535156 46.058594 C 35.292969 46.015625 35.183594 46.058594 35.25 46.160156 C 35.367188 46.351562 34.589844 46.714844 34.125 46.699219 C 33.964844 46.691406 33.832031 46.75 33.832031 46.824219 C 33.832031 46.941406 33.023438 47.175781 32.726562 47.148438 C 32.667969 47.140625 32.574219 47.214844 32.515625 47.308594 C 32.457031 47.398438 32.199219 47.515625 31.941406 47.566406 C 31.683594 47.609375 31.367188 47.734375 31.25 47.832031 C 31.125 47.933594 30.660156 48.058594 30.214844 48.109375 C 29.773438 48.160156 29.339844 48.257812 29.242188 48.339844 C 29.148438 48.417969 28.625 48.515625 28.074219 48.558594 C 27.535156 48.609375 27.015625 48.648438 26.941406 48.660156 C 26.859375 48.660156 26.882812 48.773438 26.992188 48.898438 C 27.359375 49.351562 23.683594 49.484375 22.582031 49.058594 C 22.285156 48.941406 22.285156 48.941406 22.589844 48.824219 C 22.816406 48.742188 22.617188 48.667969 21.957031 48.582031 C 21.425781 48.515625 20.957031 48.390625 20.910156 48.316406 C 20.859375 48.234375 20.5 48.167969 20.109375 48.167969 C 19.726562 48.167969 19.242188 48.050781 19.035156 47.910156 C 18.832031 47.765625 18.667969 47.683594 18.667969 47.734375 C 18.667969 47.839844 16.449219 47.007812 16.332031 46.859375 C 16.292969 46.800781 16.175781 46.742188 16.082031 46.734375 C 15.464844 46.683594 14.832031 46.425781 14.832031 46.214844 C 14.832031 46.089844 14.757812 46.023438 14.667969 46.082031 C 14.574219 46.140625 14.324219 46.132812 14.125 46.066406 C 13.757812 45.957031 13.757812 45.949219 14.082031 45.816406 C 14.351562 45.714844 14.292969 45.683594 13.832031 45.675781 C 13.449219 45.667969 13.324219 45.617188 13.476562 45.515625 C 13.648438 45.410156 13.640625 45.359375 13.433594 45.273438 C 13.285156 45.226562 13.167969 45.25 13.167969 45.339844 C 13.167969 45.425781 13.074219 45.5 12.976562 45.5 C 12.867188 45.5 12.824219 45.449219 12.882812 45.390625 C 12.941406 45.332031 12.632812 45.066406 12.199219 44.792969 C 11.773438 44.523438 11.25 44.140625 11.042969 43.949219 C 10.832031 43.765625 10.667969 43.667969 10.667969 43.734375 C 10.667969 43.800781 10.582031 43.800781 10.484375 43.742188 C 10.351562 43.660156 10.367188 43.582031 10.523438 43.484375 C 10.734375 43.351562 10.398438 43.25 9.964844 43.308594 C 9.898438 43.324219 9.890625 43.207031 9.949219 43.050781 C 10.035156 42.832031 9.992188 42.800781 9.742188 42.898438 C 9.566406 42.964844 9.464844 42.984375 9.507812 42.933594 C 9.640625 42.800781 7.132812 40.242188 6.933594 40.308594 C 6.832031 40.332031 6.808594 40.308594 6.875 40.234375 C 6.949219 40.167969 6.839844 39.933594 6.640625 39.714844 C 6.441406 39.507812 6.339844 39.332031 6.417969 39.332031 C 6.5 39.332031 6.417969 39.191406 6.242188 39.015625 C 5.648438 38.449219 5.332031 38 5.332031 37.742188 C 5.332031 37.601562 5.265625 37.523438 5.183594 37.574219 C 5.109375 37.625 4.933594 37.535156 4.808594 37.382812 C 4.660156 37.191406 4.648438 37.140625 4.792969 37.226562 C 4.910156 37.300781 5 37.273438 5 37.175781 C 5 37.082031 4.882812 37 4.742188 37 C 4.601562 37 4.523438 36.925781 4.582031 36.832031 C 4.640625 36.734375 4.765625 36.707031 4.859375 36.765625 C 4.949219 36.824219 4.925781 36.707031 4.808594 36.515625 C 4.609375 36.199219 4.574219 36.191406 4.476562 36.457031 C 4.410156 36.617188 4.339844 36.675781 4.332031 36.582031 C 4.242188 35.984375 4.167969 35.765625 4 35.667969 C 3.898438 35.609375 3.832031 35.484375 3.859375 35.398438 C 3.875 35.316406 3.660156 34.757812 3.367188 34.148438 C 3.074219 33.542969 2.832031 32.964844 2.832031 32.859375 C 2.832031 32.75 2.757812 32.667969 2.667969 32.667969 C 2.574219 32.667969 2.5 32.492188 2.5 32.285156 C 2.5 32.074219 2.441406 31.824219 2.359375 31.742188 C 2.140625 31.484375 1.832031 30.257812 1.832031 29.617188 C 1.832031 29.292969 1.707031 28.550781 1.566406 27.976562 C 1.082031 26.117188 1.535156 20.074219 2.265625 18.601562 C 2.390625 18.332031 2.5 18.035156 2.5 17.933594 C 2.5 17.832031 2.800781 17.160156 3.160156 16.425781 C 3.515625 15.699219 3.773438 15.050781 3.734375 14.964844 C 3.683594 14.890625 3.726562 14.832031 3.824219 14.832031 C 3.917969 14.832031 4 14.714844 4 14.582031 C 4 14.441406 4.082031 14.332031 4.175781 14.332031 C 4.273438 14.332031 4.308594 14.257812 4.25 14.167969 C 4.191406 14.074219 4.226562 13.867188 4.316406 13.707031 C 4.417969 13.550781 4.492188 13.507812 4.492188 13.625 C 4.5 13.742188 4.574219 13.832031 4.675781 13.832031 C 4.792969 13.832031 4.792969 13.734375 4.675781 13.507812 C 4.558594 13.292969 4.558594 13.148438 4.667969 13.082031 C 4.757812 13.023438 4.832031 13.074219 4.832031 13.199219 C 4.839844 13.375 4.867188 13.367188 4.984375 13.191406 C 5.058594 13.066406 5.089844 12.800781 5.050781 12.609375 C 4.984375 12.316406 5.007812 12.300781 5.148438 12.5 C 5.300781 12.707031 5.324219 12.707031 5.332031 12.515625 C 5.332031 12.160156 6.324219 10.683594 7.167969 9.785156 C 8.507812 8.351562 10.617188 6.332031 10.765625 6.332031 C 10.808594 6.332031 11.148438 6.109375 11.523438 5.832031 C 11.910156 5.558594 12.332031 5.332031 12.484375 5.332031 C 12.714844 5.324219 12.714844 5.308594 12.5 5.148438 C 12.308594 5.015625 12.351562 4.992188 12.699219 5.066406 C 12.941406 5.125 13.191406 5.089844 13.25 5 C 13.308594 4.910156 13.265625 4.832031 13.167969 4.832031 C 13.066406 4.832031 13.023438 4.757812 13.089844 4.660156 C 13.160156 4.542969 13.273438 4.550781 13.441406 4.683594 C 13.625 4.832031 13.726562 4.839844 13.875 4.691406 C 14.015625 4.550781 13.992188 4.5 13.742188 4.492188 C 13.441406 4.492188 13.441406 4.476562 13.707031 4.316406 C 13.867188 4.226562 14.066406 4.191406 14.140625 4.234375 C 14.226562 4.285156 14.417969 4.183594 14.574219 4.007812 C 14.734375 3.832031 14.964844 3.734375 15.101562 3.773438 C 15.226562 3.824219 15.332031 3.785156 15.332031 3.683594 C 15.332031 3.582031 15.433594 3.5 15.566406 3.5 C 15.691406 3.5 15.882812 3.390625 16 3.25 C 16.109375 3.117188 16.566406 2.957031 17.015625 2.898438 C 17.464844 2.839844 17.832031 2.734375 17.832031 2.667969 C 17.832031 2.523438 19.566406 2.058594 21 1.808594 C 21.507812 1.714844 22.292969 1.582031 22.75 1.5 C 23.714844 1.332031 28.007812 1.425781 28.148438 1.617188 Z M 0.992188 25.691406 C 0.898438 26.285156 0.875 26.175781 0.875 25.082031 C 0.875 24.089844 0.898438 23.910156 0.992188 24.359375 C 1.058594 24.699219 1.058594 25.300781 0.992188 25.691406 Z M 0.992188 25.691406 "/>
<path style=" stroke:none;fill-rule:nonzero;fill:rgb(0%,0%,0%);fill-opacity:1;" d="M 5.117188 18.808594 L 3.308594 19.082031 L 3.308594 21.417969 L 3.316406 23.75 L 15.5 23.75 L 15.5 24.941406 C 15.5 26.332031 15.699219 26.207031 12.917969 26.507812 C 10.285156 26.792969 6.140625 26.550781 3.476562 25.957031 C 3.117188 25.875 3.214844 27.140625 3.582031 27.234375 C 5.925781 27.816406 11 27.984375 14.117188 27.574219 C 17.167969 27.175781 16.832031 27.515625 16.832031 24.816406 L 16.832031 22.5 L 4.484375 22.5 L 4.535156 21.292969 L 4.582031 20.082031 L 6.25 19.867188 C 8.332031 19.589844 13.015625 19.699219 15 20.066406 C 16.925781 20.425781 16.859375 20.441406 16.800781 19.707031 L 16.75 19.082031 L 14.832031 18.800781 C 12.308594 18.433594 7.582031 18.433594 5.117188 18.808594 Z M 5.117188 18.808594 "/>
<path style=" stroke:none;fill-rule:nonzero;fill:rgb(0%,0%,0%);fill-opacity:1;" d="M 20.167969 18.800781 L 18.417969 19.082031 L 18.375 23.109375 L 18.324219 27.132812 L 19.375 27.308594 C 22.734375 27.890625 26.035156 27.984375 29.117188 27.574219 C 31.941406 27.207031 31.832031 27.25 31.832031 26.464844 C 31.832031 25.917969 31.785156 25.816406 31.558594 25.898438 C 29.964844 26.515625 23.925781 26.773438 21.125 26.351562 L 19.660156 26.132812 L 19.707031 23.109375 L 19.75 20.082031 L 21.332031 19.867188 C 23.332031 19.601562 28.417969 19.714844 30.167969 20.074219 C 31.890625 20.433594 31.859375 20.433594 31.800781 19.707031 L 31.75 19.089844 L 30.582031 18.867188 C 28.660156 18.507812 22.257812 18.464844 20.167969 18.800781 Z M 20.167969 18.800781 "/>
<path style=" stroke:none;fill-rule:nonzero;fill:rgb(0%,0%,0%);fill-opacity:1;" d="M 35.25 18.800781 L 33.417969 19.082031 L 33.375 23.125 C 33.351562 25.351562 33.351562 27.167969 33.375 27.167969 C 33.398438 27.167969 34.058594 27.285156 34.832031 27.425781 C 37.75 27.964844 42.917969 27.917969 45.957031 27.316406 C 46.832031 27.140625 46.832031 27.140625 46.832031 26.507812 L 46.832031 25.875 L 45.792969 26.089844 C 43.125 26.648438 39.589844 26.808594 36.992188 26.5 C 34.476562 26.191406 34.667969 26.324219 34.667969 24.941406 L 34.667969 23.75 L 40.757812 23.800781 L 46.839844 23.839844 L 46.800781 21.464844 L 46.75 19.089844 L 45.582031 18.867188 C 43.648438 18.507812 37.425781 18.457031 35.25 18.800781 Z M 43.617188 19.832031 C 45.75 20.117188 45.582031 19.992188 45.582031 21.324219 L 45.582031 22.5 L 34.667969 22.5 L 34.667969 21.332031 C 34.667969 20.265625 34.699219 20.167969 35.042969 20.082031 C 36.707031 19.691406 41.449219 19.558594 43.617188 19.832031 Z M 43.617188 19.832031 "/>
<path style=" stroke:none;fill-rule:nonzero;fill:rgb(0%,0%,0%);fill-opacity:1;" d="M 26.339844 29.707031 C 26.332031 30.050781 26.417969 30.167969 26.660156 30.167969 C 26.949219 30.167969 26.964844 30.226562 26.808594 30.675781 C 26.566406 31.367188 26.742188 31.484375 27.074219 30.859375 C 27.410156 30.207031 27.410156 29.832031 27.058594 29.832031 C 26.910156 29.832031 26.683594 29.699219 26.566406 29.542969 C 26.367188 29.273438 26.339844 29.292969 26.339844 29.707031 Z M 26.339844 29.707031 "/>
<path style=" stroke:none;fill-rule:nonzero;fill:rgb(0%,0%,0%);fill-opacity:1;" d="M 40.148438 29.417969 C 39.964844 29.765625 40.101562 30.082031 40.457031 30.132812 C 40.816406 30.183594 40.816406 30.207031 40.582031 30.667969 C 40.292969 31.234375 40.273438 31.332031 40.5 31.332031 C 40.648438 31.332031 41.167969 30.292969 41.167969 29.984375 C 41.167969 29.898438 40.984375 29.832031 40.757812 29.832031 C 40.507812 29.832031 40.332031 29.726562 40.300781 29.542969 C 40.265625 29.382812 40.199219 29.324219 40.148438 29.417969 Z M 40.148438 29.417969 "/>
<path style=" stroke:none;fill-rule:nonzero;fill:rgb(0%,0%,0%);fill-opacity:1;" d="M 41.332031 29.75 C 41.332031 30.050781 41.425781 30.167969 41.660156 30.167969 C 41.949219 30.167969 41.964844 30.226562 41.808594 30.675781 C 41.566406 31.367188 41.742188 31.484375 42.074219 30.859375 C 42.425781 30.167969 42.398438 29.832031 42 29.832031 C 41.816406 29.832031 41.667969 29.726562 41.667969 29.582031 C 41.667969 29.441406 41.589844 29.332031 41.5 29.332031 C 41.410156 29.332031 41.332031 29.515625 41.332031 29.75 Z M 41.332031 29.75 "/>
<path style=" stroke:none;fill-rule:nonzero;fill:rgb(0%,0%,0%);fill-opacity:1;" d="M 16.574219 29.816406 C 16.417969 29.976562 16.507812 30.300781 16.707031 30.273438 C 17.015625 30.226562 17.332031 30 17.332031 29.832031 C 17.332031 29.691406 16.714844 29.675781 16.574219 29.816406 Z M 16.574219 29.816406 "/>
<path style=" stroke:none;fill-rule:nonzero;fill:rgb(0%,0%,0%);fill-opacity:1;" d="M 3.167969 30.75 C 3.167969 31.25 3.242188 31.667969 3.332031 31.667969 C 3.425781 31.667969 3.5 31.25 3.5 30.75 C 3.5 30.242188 3.425781 29.832031 3.332031 29.832031 C 3.242188 29.832031 3.167969 30.242188 3.167969 30.75 Z M 3.167969 30.75 "/>
<path style=" stroke:none;fill-rule:nonzero;fill:rgb(0%,0%,0%);fill-opacity:1;" d="M 3.832031 30.582031 C 3.832031 30.992188 3.910156 31.332031 4 31.332031 C 4.089844 31.332031 4.167969 30.992188 4.167969 30.582031 C 4.167969 30.167969 4.089844 29.832031 4 29.832031 C 3.910156 29.832031 3.832031 30.167969 3.832031 30.582031 Z M 3.832031 30.582031 "/>
<path style=" stroke:none;fill-rule:nonzero;fill:rgb(0%,0%,0%);fill-opacity:1;" d="M 4.5 29.992188 C 4.5 30.074219 4.574219 30.351562 4.675781 30.601562 C 4.800781 30.941406 4.792969 31.089844 4.632812 31.183594 C 4.265625 31.417969 4.625 31.535156 5.023438 31.324219 C 5.625 31.007812 6 29.832031 5.5 29.832031 C 5.410156 29.832031 5.332031 30.058594 5.332031 30.332031 C 5.332031 30.609375 5.265625 30.832031 5.183594 30.832031 C 5.089844 30.832031 4.976562 30.609375 4.917969 30.332031 C 4.816406 29.875 4.5 29.617188 4.5 29.992188 Z M 4.5 29.992188 "/>
<path style=" stroke:none;fill-rule:nonzero;fill:rgb(0%,0%,0%);fill-opacity:1;" d="M 6.042969 30.609375 C 6.023438 31.484375 6.25 31.566406 6.410156 30.742188 C 6.492188 30.308594 6.589844 30.160156 6.800781 30.199219 C 7.226562 30.285156 7.257812 30.839844 6.851562 30.949219 C 6.476562 31.050781 6.367188 31.332031 6.707031 31.332031 C 7.234375 31.324219 7.535156 30.785156 7.316406 30.214844 C 7.035156 29.441406 6.058594 29.742188 6.042969 30.609375 Z M 6.042969 30.609375 "/>
<path style=" stroke:none;fill-rule:nonzero;fill:rgb(0%,0%,0%);fill-opacity:1;" d="M 7.667969 30.382812 C 7.667969 31.015625 7.917969 31.332031 8.417969 31.332031 C 8.917969 31.332031 9.167969 31.015625 9.167969 30.382812 C 9.167969 29.675781 8.867188 29.667969 8.800781 30.375 C 8.757812 30.808594 8.667969 30.925781 8.332031 30.976562 L 7.917969 31.023438 L 8.292969 30.675781 C 8.675781 30.308594 8.792969 29.832031 8.5 29.832031 C 8.410156 29.832031 8.332031 29.984375 8.332031 30.167969 C 8.332031 30.351562 8.257812 30.5 8.167969 30.5 C 8.074219 30.5 8 30.351562 8 30.167969 C 8 29.984375 7.925781 29.832031 7.832031 29.832031 C 7.742188 29.832031 7.667969 30.082031 7.667969 30.382812 Z M 7.667969 30.382812 "/>
<path style=" stroke:none;fill-rule:nonzero;fill:rgb(0%,0%,0%);fill-opacity:1;" d="M 10.167969 30.339844 C 10.167969 30.640625 10.234375 30.808594 10.332031 30.75 C 10.425781 30.691406 10.5 30.464844 10.5 30.242188 C 10.5 30.015625 10.425781 29.832031 10.332031 29.832031 C 10.242188 29.832031 10.167969 30.066406 10.167969 30.339844 Z M 10.167969 30.339844 "/>
<path style=" stroke:none;fill-rule:nonzero;fill:rgb(0%,0%,0%);fill-opacity:1;" d="M 10.859375 30.601562 C 10.851562 31 10.917969 31.332031 11.007812 31.332031 C 11.089844 31.332031 11.167969 31.191406 11.167969 31.015625 C 11.167969 30.515625 11.351562 30.167969 11.601562 30.167969 C 11.742188 30.167969 11.832031 30.339844 11.832031 30.582031 C 11.832031 30.839844 11.742188 31 11.582031 31 C 11.449219 31 11.332031 31.074219 11.332031 31.167969 C 11.332031 31.417969 11.765625 31.367188 11.992188 31.089844 C 12.417969 30.574219 12.140625 29.917969 11.476562 29.890625 L 10.875 29.867188 Z M 10.859375 30.601562 "/>
<path style=" stroke:none;fill-rule:nonzero;fill:rgb(0%,0%,0%);fill-opacity:1;" d="M 12.5 30.398438 C 12.5 31.382812 13.425781 31.683594 13.734375 30.800781 C 13.933594 30.226562 13.632812 29.832031 12.984375 29.832031 C 12.550781 29.832031 12.5 29.882812 12.5 30.398438 Z M 13.417969 30.582031 C 13.417969 30.765625 13.285156 30.933594 13.125 30.964844 C 12.910156 31.007812 12.832031 30.917969 12.832031 30.582031 C 12.832031 30.25 12.910156 30.160156 13.125 30.199219 C 13.285156 30.234375 13.417969 30.398438 13.417969 30.582031 Z M 13.417969 30.582031 "/>
<path style=" stroke:none;fill-rule:nonzero;fill:rgb(0%,0%,0%);fill-opacity:1;" d="M 14.667969 30.382812 C 14.667969 31.015625 14.917969 31.332031 15.417969 31.332031 C 15.917969 31.332031 16.167969 31.015625 16.167969 30.382812 C 16.167969 29.675781 15.867188 29.667969 15.800781 30.375 C 15.765625 30.742188 15.648438 30.933594 15.441406 30.976562 C 15.140625 31.023438 15.140625 31.007812 15.398438 30.640625 C 15.699219 30.207031 15.75 29.832031 15.5 29.832031 C 15.410156 29.832031 15.332031 29.984375 15.332031 30.167969 C 15.332031 30.351562 15.257812 30.5 15.167969 30.5 C 15.074219 30.5 15 30.351562 15 30.167969 C 15 29.984375 14.925781 29.832031 14.832031 29.832031 C 14.742188 29.832031 14.667969 30.082031 14.667969 30.382812 Z M 14.667969 30.382812 "/>
<path style=" stroke:none;fill-rule:nonzero;fill:rgb(0%,0%,0%);fill-opacity:1;" d="M 17.5 29.875 C 17.5 29.917969 17.582031 30.191406 17.691406 30.492188 C 17.839844 30.925781 17.832031 31.066406 17.648438 31.175781 C 17.226562 31.441406 17.640625 31.523438 18.132812 31.265625 C 18.816406 30.917969 19.160156 29.832031 18.582031 29.832031 C 18.417969 29.832031 18.332031 30 18.332031 30.367188 C 18.332031 30.925781 18.082031 30.851562 17.976562 30.265625 C 17.925781 30 17.5 29.648438 17.5 29.875 Z M 17.5 29.875 "/>
<path style=" stroke:none;fill-rule:nonzero;fill:rgb(0%,0%,0%);fill-opacity:1;" d="M 19.667969 29.992188 C 19.667969 30.082031 19.859375 30.167969 20.082031 30.167969 C 20.433594 30.167969 20.5 30.242188 20.5 30.660156 C 20.5 30.925781 20.582031 31.199219 20.675781 31.257812 C 20.792969 31.324219 20.832031 31.125 20.800781 30.640625 C 20.75 29.957031 19.667969 29.332031 19.667969 29.992188 Z M 19.667969 29.992188 "/>
<path style=" stroke:none;fill-rule:nonzero;fill:rgb(0%,0%,0%);fill-opacity:1;" d="M 21.167969 30.398438 C 21.167969 31.382812 22.089844 31.683594 22.398438 30.800781 C 22.601562 30.226562 22.300781 29.832031 21.648438 29.832031 C 21.214844 29.832031 21.167969 29.882812 21.167969 30.398438 Z M 22.082031 30.582031 C 22.082031 30.765625 21.949219 30.933594 21.792969 30.964844 C 21.574219 31.007812 21.5 30.917969 21.5 30.582031 C 21.5 30.25 21.574219 30.160156 21.792969 30.199219 C 21.949219 30.234375 22.082031 30.398438 22.082031 30.582031 Z M 22.082031 30.582031 "/>
<path style=" stroke:none;fill-rule:nonzero;fill:rgb(0%,0%,0%);fill-opacity:1;" d="M 22.582031 30 C 22.640625 30.089844 22.792969 30.167969 22.925781 30.167969 C 23.089844 30.167969 23.167969 30.351562 23.167969 30.75 C 23.167969 31.066406 23.242188 31.332031 23.332031 31.332031 C 23.425781 31.332031 23.5 31.117188 23.5 30.851562 C 23.5 30.582031 23.542969 30.242188 23.601562 30.101562 C 23.683594 29.882812 23.582031 29.832031 23.089844 29.832031 C 22.726562 29.832031 22.523438 29.898438 22.582031 30 Z M 22.582031 30 "/>
<path style=" stroke:none;fill-rule:nonzero;fill:rgb(0%,0%,0%);fill-opacity:1;" d="M 24.042969 30.066406 C 24.398438 30.339844 24.433594 31 24.082031 31 C 23.949219 31 23.832031 31.082031 23.832031 31.175781 C 23.832031 31.484375 24.574219 31.265625 24.640625 30.941406 C 24.75 30.351562 24.507812 29.832031 24.125 29.839844 C 23.773438 29.839844 23.773438 29.859375 24.042969 30.066406 Z M 24.042969 30.066406 "/>
<path style=" stroke:none;fill-rule:nonzero;fill:rgb(0%,0%,0%);fill-opacity:1;" d="M 24.917969 29.976562 C 25.007812 30.058594 25.234375 30.160156 25.417969 30.191406 C 25.648438 30.234375 25.773438 30.425781 25.851562 30.832031 C 25.925781 31.316406 25.964844 31.359375 26.082031 31.109375 C 26.332031 30.523438 25.976562 29.925781 25.332031 29.867188 C 24.949219 29.824219 24.808594 29.867188 24.917969 29.976562 Z M 24.917969 29.976562 "/>
<path style=" stroke:none;fill-rule:nonzero;fill:rgb(0%,0%,0%);fill-opacity:1;" d="M 28.167969 29.992188 C 28.167969 30.082031 28.242188 30.167969 28.332031 30.167969 C 28.574219 30.167969 28.542969 30.957031 28.292969 31.050781 C 28.175781 31.089844 28.132812 31.175781 28.199219 31.25 C 28.449219 31.515625 28.832031 31.167969 28.832031 30.675781 C 28.832031 30.332031 28.917969 30.167969 29.082031 30.167969 C 29.257812 30.167969 29.332031 30.339844 29.332031 30.75 C 29.332031 31.066406 29.417969 31.332031 29.507812 31.332031 C 29.617188 31.332031 29.667969 31.042969 29.632812 30.625 C 29.582031 29.917969 29.582031 29.917969 28.875 29.867188 C 28.457031 29.832031 28.167969 29.882812 28.167969 29.992188 Z M 28.167969 29.992188 "/>
<path style=" stroke:none;fill-rule:nonzero;fill:rgb(0%,0%,0%);fill-opacity:1;" d="M 30.640625 30.589844 C 30.699219 31.308594 31 31.660156 31 31.015625 C 31 30.515625 31.183594 30.167969 31.433594 30.167969 C 31.574219 30.167969 31.667969 30.339844 31.667969 30.582031 C 31.667969 30.839844 31.574219 31 31.417969 31 C 31.285156 31 31.167969 31.074219 31.167969 31.167969 C 31.167969 31.417969 31.601562 31.367188 31.824219 31.089844 C 32.273438 30.550781 31.976562 29.917969 31.25 29.882812 L 30.582031 29.859375 Z M 30.640625 30.589844 "/>
<path style=" stroke:none;fill-rule:nonzero;fill:rgb(0%,0%,0%);fill-opacity:1;" d="M 32.167969 30 C 32.167969 30.089844 32.316406 30.167969 32.5 30.167969 C 32.765625 30.167969 32.832031 30.273438 32.832031 30.75 C 32.832031 31.066406 32.910156 31.332031 33 31.332031 C 33.089844 31.332031 33.167969 31.117188 33.167969 30.851562 C 33.167969 30.582031 33.207031 30.242188 33.265625 30.101562 C 33.351562 29.882812 33.25 29.832031 32.765625 29.832031 C 32.433594 29.832031 32.167969 29.910156 32.167969 30 Z M 32.167969 30 "/>
<path style=" stroke:none;fill-rule:nonzero;fill:rgb(0%,0%,0%);fill-opacity:1;" d="M 33.5 30 C 33.5 30.089844 33.726562 30.167969 34.007812 30.167969 C 34.464844 30.167969 34.492188 30.199219 34.324219 30.507812 C 34.226562 30.699219 34.175781 30.976562 34.207031 31.132812 C 34.25 31.324219 34.359375 31.207031 34.550781 30.773438 C 34.941406 29.882812 34.925781 29.832031 34.167969 29.832031 C 33.800781 29.832031 33.5 29.910156 33.5 30 Z M 33.5 30 "/>
<path style=" stroke:none;fill-rule:nonzero;fill:rgb(0%,0%,0%);fill-opacity:1;" d="M 35.132812 30.050781 C 35.25 30.183594 35.257812 30.351562 35.160156 30.507812 C 34.949219 30.832031 34.957031 31.332031 35.167969 31.332031 C 35.257812 31.332031 35.332031 31.183594 35.332031 31 C 35.332031 30.566406 35.609375 30.574219 35.832031 31.007812 C 35.933594 31.191406 36.089844 31.300781 36.183594 31.242188 C 36.285156 31.175781 36.292969 31.066406 36.191406 30.941406 C 36.109375 30.832031 36.101562 30.601562 36.175781 30.417969 C 36.359375 29.957031 36.359375 29.832031 36.167969 29.832031 C 36.074219 29.832031 36 29.941406 36 30.082031 C 36 30.214844 35.925781 30.332031 35.824219 30.332031 C 35.734375 30.332031 35.617188 30.214844 35.558594 30.082031 C 35.507812 29.941406 35.351562 29.832031 35.207031 29.832031 C 35.023438 29.832031 35.007812 29.890625 35.132812 30.050781 Z M 35.132812 30.050781 "/>
<path style=" stroke:none;fill-rule:nonzero;fill:rgb(0%,0%,0%);fill-opacity:1;" d="M 36.5 29.992188 C 36.5 30.074219 36.707031 30.167969 36.957031 30.199219 C 37.339844 30.242188 37.417969 30.332031 37.425781 30.75 C 37.425781 31.023438 37.5 31.234375 37.589844 31.214844 C 37.832031 31.160156 37.882812 30.339844 37.660156 30.074219 C 37.441406 29.808594 36.5 29.742188 36.5 29.992188 Z M 36.5 29.992188 "/>
<path style=" stroke:none;fill-rule:nonzero;fill:rgb(0%,0%,0%);fill-opacity:1;" d="M 38.667969 29.992188 C 38.667969 30.082031 38.859375 30.167969 39.082031 30.167969 C 39.449219 30.167969 39.5 30.242188 39.5 30.75 C 39.5 31.066406 39.582031 31.332031 39.675781 31.332031 C 40.199219 31.332031 39.75 29.917969 39.207031 29.867188 C 38.898438 29.832031 38.667969 29.890625 38.667969 29.992188 Z M 38.667969 29.992188 "/>
<path style=" stroke:none;fill-rule:nonzero;fill:rgb(0%,0%,0%);fill-opacity:1;" d="M 42.5 29.992188 C 42.5 30.074219 42.667969 30.167969 42.875 30.199219 C 43.125 30.234375 43.25 30.367188 43.25 30.582031 C 43.25 30.800781 43.125 30.933594 42.875 30.964844 C 42.417969 31.035156 42.375 31.332031 42.824219 31.332031 C 43.492188 31.332031 43.910156 30.476562 43.464844 30.035156 C 43.234375 29.800781 42.5 29.765625 42.5 29.992188 Z M 42.5 29.992188 "/>
<path style=" stroke:none;fill-rule:nonzero;fill:rgb(0%,0%,0%);fill-opacity:1;" d="M 43.976562 30.625 C 44.042969 31.425781 44.148438 31.425781 44.410156 30.617188 C 44.609375 29.992188 44.890625 29.976562 44.964844 30.574219 C 45.007812 30.875 44.941406 31 44.757812 31 C 44.617188 31 44.5 31.082031 44.5 31.175781 C 44.5 31.441406 45.015625 31.300781 45.214844 30.984375 C 45.566406 30.417969 45.226562 29.851562 44.542969 29.875 L 43.917969 29.898438 Z M 43.976562 30.625 "/>
<path style=" stroke:none;fill-rule:nonzero;fill:rgb(0%,0%,0%);fill-opacity:1;" d="M 45.667969 29.992188 C 45.667969 30.082031 45.859375 30.167969 46.082031 30.167969 C 46.449219 30.167969 46.5 30.242188 46.5 30.75 C 46.5 31.066406 46.582031 31.332031 46.675781 31.332031 C 47.199219 31.332031 46.75 29.917969 46.207031 29.867188 C 45.898438 29.832031 45.667969 29.890625 45.667969 29.992188 Z M 45.667969 29.992188 "/>
<path style=" stroke:none;fill-rule:nonzero;fill:rgb(0%,0%,0%);fill-opacity:1;" d="M 19.773438 30.441406 C 19.601562 30.617188 19.648438 31.332031 19.832031 31.332031 C 19.925781 31.332031 20 31.109375 20 30.832031 C 20 30.316406 19.964844 30.257812 19.773438 30.441406 Z M 19.773438 30.441406 "/>
<path style=" stroke:none;fill-rule:nonzero;fill:rgb(0%,0%,0%);fill-opacity:1;" d="M 33.609375 30.441406 C 33.433594 30.617188 33.484375 31.667969 33.667969 31.667969 C 33.757812 31.667969 33.832031 31.367188 33.832031 31 C 33.832031 30.316406 33.808594 30.25 33.609375 30.441406 Z M 33.609375 30.441406 "/>
<path style=" stroke:none;fill-rule:nonzero;fill:rgb(0%,0%,0%);fill-opacity:1;" d="M 38.773438 30.441406 C 38.601562 30.617188 38.648438 31.332031 38.832031 31.332031 C 38.925781 31.332031 39 31.109375 39 30.832031 C 39 30.316406 38.964844 30.257812 38.773438 30.441406 Z M 38.773438 30.441406 "/>
<path style=" stroke:none;fill-rule:nonzero;fill:rgb(0%,0%,0%);fill-opacity:1;" d="M 45.667969 30.832031 C 45.667969 31.109375 45.742188 31.332031 45.832031 31.332031 C 45.925781 31.332031 46 31.109375 46 30.832031 C 46 30.558594 45.925781 30.332031 45.832031 30.332031 C 45.742188 30.332031 45.667969 30.558594 45.667969 30.832031 Z M 45.667969 30.832031 "/>
</g>
</svg>
